<svg width="273" height="157" viewBox="0 0 273 157" fill="none" xmlns="http://www.w3.org/2000/svg">
<ellipse cx="33.045" cy="76.9385" rx="33.045" ry="29.291" fill="#3C1363"/>
<ellipse cx="239.246" cy="76.9375" rx="33.045" ry="29.291" fill="#3C1363"/>
<path fill-rule="evenodd" clip-rule="evenodd" d="M136.146 47.647C154.396 47.647 169.191 34.533 169.191 18.356C169.191 11.4064 166.46 5.02214 161.898 0H188.706C208.588 0 224.706 16.1178 224.706 36V121C224.706 140.882 208.588 157 188.706 157H166.63C168.279 153.516 169.191 149.689 169.191 145.674C169.191 129.497 154.396 116.383 136.146 116.383C117.895 116.383 103.101 129.497 103.101 145.674C103.101 149.689 104.012 153.516 105.661 157H83.585C63.7027 157 47.585 140.882 47.585 121V36C47.585 16.1178 63.7027 0 83.585 0H110.393C105.831 5.02214 103.101 11.4064 103.101 18.356C103.101 34.533 117.895 47.647 136.146 47.647Z" fill="#3C1363"/>
</svg>
